<svg width="38" height="39" viewBox="0 0 38 39" fill="none" xmlns="http://www.w3.org/2000/svg">
<path fill-rule="evenodd" clip-rule="evenodd" d="M17.7236 0.213174C16.8256 0.28534 16.5762 0.409053 16.8057 0.697716C17.1649 1.15133 17.6637 1.24411 19.4995 1.2338C29.1373 1.14102 37.7774 9.58442 35.9117 19.5227C35.4727 21.8526 33.6868 26.0898 32.3499 27.9661C23.9193 39.8013 11.907 40.2858 3.9852 29.1001C0.922249 24.7702 0.972135 16.4299 4.09495 11.2855C6.57923 7.20295 12.0566 2.28537 14.95 1.5534C15.808 1.3369 15.7381 0.97607 14.7903 0.738953C11.8172 0.00698535 4.21467 6.54315 1.67053 12.0174C-0.454582 16.5948 -0.564329 23.2444 1.41112 27.3063C5.91077 36.5229 18.2424 40.9972 26.0345 36.2342C31.6216 32.8115 34.9639 28.4403 37.2387 21.5949C41.0898 9.98649 29.6761 -0.673435 17.7236 0.213174Z" fill="#B0B0B0"/>
</svg>
