<svg width="59" height="58" viewBox="0 0 59 58" fill="none" xmlns="http://www.w3.org/2000/svg">
<path fill-rule="evenodd" clip-rule="evenodd" d="M27.5182 0.0788729C26.124 0.189021 25.7368 0.377845 26.0931 0.818437C26.6507 1.51079 27.4252 1.65241 30.2755 1.63668C45.2395 1.49506 58.6544 14.3824 55.7577 29.5513C55.0761 33.1075 52.3032 39.5747 50.2275 42.4386C37.1379 60.5028 18.4871 61.2424 6.18755 44.1695C1.43191 37.5606 1.50937 24.8307 6.35794 16.9787C10.2151 10.7475 18.7195 3.24169 23.2118 2.12448C24.544 1.79403 24.4355 1.24329 22.9639 0.881377C18.3477 -0.235837 6.54383 9.74041 2.59371 18.0959C-0.705798 25.0824 -0.876196 35.2318 2.19096 41.4315C9.17724 55.499 28.3237 62.3282 40.4219 55.0584C49.0967 49.8342 54.2861 43.1624 57.8179 32.7141C63.7973 14.996 46.076 -1.27437 27.5182 0.0788729Z" fill="#B0B0B0"/>
</svg>
