<svg width="335" height="103" viewBox="0 0 335 103" fill="none" xmlns="http://www.w3.org/2000/svg">
<path fill-rule="evenodd" clip-rule="evenodd" d="M82.4893 12.8468C44.1452 21.2707 24.2545 31.361 17.8413 45.6972C16.5536 48.6556 15.0751 50.4025 12.1952 52.528C-5.08793 65.3382 -3.0929 80.4902 17.2017 90.8379C38.5886 101.704 100.214 105.74 166.754 100.617C176.284 99.8947 191.693 98.931 200.946 98.5361C316.22 93.5217 356.374 62.0966 322.934 36.9994C302.574 21.6729 271.698 13.8756 219.685 10.7231C170.162 7.76768 103.611 17.694 55.1738 33.7853C42.5151 37.9917 41.1622 35.9713 44.9149 33.6661C58.1419 25.4887 93.1039 15.8453 129.357 10.8494C161.7 6.37702 176.635 4.64322 200.633 5.87789C210.01 6.34778 215.668 2.37691 201.25 1.05176C185.969 -0.26473 124.152 3.69452 82.4893 12.8468ZM310.639 68.5038C294.706 80.3034 259.092 87.737 201.882 91.0974C10.6908 102.309 28.3166 55.7788 28.3166 55.7788C28.4918 55.7315 90.4589 19.9283 208.634 17.0213C266.773 15.5431 358.346 33.1571 310.639 68.5038ZM81.6271 94.1735C101.134 97.0428 78.0688 96.0893 49.0926 92.8593C-4.91689 86.8496 11.8972 67.0364 17.0771 63.8964C32.3755 80.2537 54.3328 90.1802 81.6271 94.1735Z" fill="#232323"/>
</svg>
