<svg width="368" height="100" viewBox="0 0 368 100" fill="none" xmlns="http://www.w3.org/2000/svg">
<path fill-rule="evenodd" clip-rule="evenodd" d="M87.0612 17.1521C45.2063 26.9655 23.8498 37.3624 17.6526 50.995C16.4132 53.8064 14.8877 55.5038 11.8368 57.6257C-6.46873 70.4096 -3.32246 84.3604 19.7501 92.9007C44.0622 101.865 112.422 102.396 185.644 94.1738C196.132 93.0068 213.102 91.3094 223.304 90.4606C350.394 79.7986 392.821 48.5549 354.303 27.0186C330.849 13.8633 296.24 8.24055 238.559 8.02837C183.642 7.86923 110.706 20.547 58.1727 37.9989C44.4436 42.5608 42.8228 40.7573 46.8271 38.4233C60.9376 30.1482 98.9788 19.38 138.736 12.8555C174.203 7.0205 190.602 4.63347 217.202 4.52738C227.594 4.47434 233.601 0.495945 217.583 0.018538C200.613 -0.405824 132.539 6.49005 87.0612 17.1521ZM342.671 56.883C325.796 68.659 286.897 77.4115 223.876 83.5117C13.2669 103.881 29.8563 59.8005 29.8563 59.8005C30.047 59.7475 96.3093 23.3054 226.736 14.4468C290.901 10.0441 393.202 21.6079 342.671 56.883ZM91.1608 92.6355C112.899 94.2799 87.3472 94.5982 55.1218 93.1129C-4.94326 90.3546 12.4089 71.0991 17.9387 67.9164C35.8628 82.2917 60.7469 90.3546 91.1608 92.6355Z" fill="#414141"/>
</svg>
