<svg width="72" height="7" viewBox="0 0 72 7" fill="none" xmlns="http://www.w3.org/2000/svg">
<path fill-rule="evenodd" clip-rule="evenodd" d="M1.65512 1.30111C3.18113 1.72841 7.19154 1.74977 18.0783 1.7925C35.0784 1.8566 48.5705 2.32661 52.3204 3.01028C52.6182 3.07438 28.7883 3.5444 26.3411 3.20256C22.5261 2.64708 4.30701 3.11711 0.640875 3.75804C-0.401276 3.92896 -0.0104649 4.52717 0.668794 4.65536C1.72955 4.86901 4.57687 4.84764 12.3837 4.80491C17.8736 4.78355 61.5509 5.27494 66.3243 6.15089C69.0041 6.64227 70.6325 7.09093 71.3769 6.9841C72.0003 6.89865 72.0096 6.64227 71.4699 5.93724C71.107 5.46722 71.5164 5.18948 71.777 5.06129C72.1771 4.84764 72.0096 4.12124 71.5071 3.5444C70.8279 2.75391 69.6555 2.77527 70.2138 3.56576C70.3347 3.73668 70.3626 4.16397 69.9346 4.07851C68.6878 3.82214 59.876 2.07024 57.4846 1.77114C31.952 -1.47629 7.03335 0.895184 1.75747 0.104692C-0.112823 -0.194412 0.743242 1.04474 1.65512 1.30111Z" fill="#606060"/>
</svg>
