<svg width="35" height="6" viewBox="0 0 35 6" fill="none" xmlns="http://www.w3.org/2000/svg">
<path fill-rule="evenodd" clip-rule="evenodd" d="M0.804572 0.935053C1.54638 1.24213 3.49589 1.25749 8.78808 1.28819C17.052 1.33426 23.6107 1.67204 25.4335 2.16336C25.5783 2.20942 13.9943 2.5472 12.8047 2.30154C10.9502 1.90234 2.09369 2.24013 0.311536 2.70074C-0.195064 2.82357 -0.00508708 3.25348 0.325108 3.34561C0.840754 3.49914 2.22487 3.48379 6.01987 3.45308C8.68857 3.43773 29.9206 3.79087 32.241 4.42037C33.5437 4.77351 34.3352 5.09594 34.6971 5.01917C35.0001 4.95776 35.0047 4.77351 34.7423 4.26684C34.5659 3.92905 34.7649 3.72945 34.8916 3.63733C35.0861 3.48379 35.0047 2.96176 34.7604 2.5472C34.4302 1.97911 33.8603 1.99447 34.1317 2.56256C34.1905 2.68539 34.2041 2.99247 33.996 2.93105C33.3899 2.7468 29.1064 1.48779 27.9439 1.27284C15.5322 -1.06094 3.41899 0.643329 0.854323 0.0752379C-0.0548446 -0.139716 0.361298 0.750807 0.804572 0.935053Z" fill="#606060"/>
</svg>
