<?xml version="1.0" standalone="no"?>
<!DOCTYPE svg PUBLIC "-//W3C//DTD SVG 20010904//EN"
 "http://www.w3.org/TR/2001/REC-SVG-20010904/DTD/svg10.dtd">
<svg version="1.0" xmlns="http://www.w3.org/2000/svg"
 width="928.000000pt" height="928.000000pt" viewBox="0 0 928.000000 928.000000"
 preserveAspectRatio="xMidYMid meet">
<metadata>
Created by potrace 1.14, written by Peter Selinger 2001-2017
</metadata>
<g transform="translate(0.000000,928.000000) scale(0.100000,-0.100000)"
fill="#000000" stroke="none">
<path d="M2188 9206 c-3 -9 -2 -8991 1 -9006 1 -3 1090 -6 2421 -6 l2420 1 0
100 c1 95 1 7881 0 8586 l0 335 -2420 0 c-1687 0 -2420 -3 -2422 -10z m586
-524 c12 6 23 10 26 9 3 -2 13 -7 23 -12 12 -7 17 -6 17 3 0 9 3 9 11 1 8 -8
20 -8 36 -2 17 6 22 6 17 -2 -4 -8 -1 -8 13 -1 10 6 25 7 32 3 11 -7 86 2 86
10 0 1 10 -3 23 -10 17 -9 22 -9 22 1 0 9 3 9 11 1 8 -8 20 -8 36 -2 17 6 22
6 17 -2 -4 -8 -1 -8 13 -1 10 6 25 7 32 3 11 -7 66 -1 81 9 3 2 15 -2 28 -9
17 -9 22 -9 22 1 0 9 3 9 11 1 8 -8 20 -8 36 -2 17 6 22 6 17 -2 -4 -8 -1 -8
13 -1 10 6 25 7 32 3 7 -5 29 -5 50 0 43 10 41 10 64 -2 12 -7 17 -6 17 3 0 9
3 9 11 1 8 -8 20 -8 36 -2 18 6 22 6 17 -3 -5 -7 -3 -8 5 -3 17 10 81 12 81 2
0 -4 5 -5 11 -1 16 9 169 11 169 1 0 -5 4 -6 9 -2 17 10 71 13 71 3 0 -5 4 -7
9 -3 17 10 71 13 71 3 0 -5 4 -7 9 -3 17 10 71 13 71 3 0 -5 4 -7 9 -3 17 10
71 13 71 3 0 -5 4 -7 9 -3 17 10 71 13 71 3 0 -5 4 -7 9 -3 17 10 71 13 71 3
0 -5 4 -7 9 -3 17 10 71 13 71 3 0 -5 7 -5 17 1 11 6 24 6 35 0 13 -7 18 -6
18 3 0 9 3 9 11 1 8 -8 20 -8 36 -2 17 6 22 6 17 -2 -4 -8 -1 -8 13 -1 10 6
25 7 32 3 11 -7 66 -1 81 9 3 2 15 -2 28 -9 17 -9 22 -9 22 1 0 9 3 9 11 1 8
-8 20 -8 36 -2 17 6 22 6 17 -2 -4 -8 -1 -8 13 -1 10 6 25 7 32 3 7 -5 29 -5
50 0 43 10 41 10 64 -2 12 -7 17 -6 17 3 0 9 3 9 11 1 8 -8 20 -8 36 -2 17 6
22 6 17 -2 -4 -8 -1 -8 13 -1 10 6 25 7 32 3 7 -5 29 -5 50 0 43 10 41 10 64
-2 12 -7 17 -6 17 3 0 9 3 9 11 1 8 -8 20 -8 36 -2 17 6 22 6 17 -2 -4 -8 -1
-8 13 -1 10 6 25 7 32 3 11 -7 66 -1 81 9 3 2 15 -2 28 -9 17 -9 22 -9 22 1 0
9 3 9 11 1 8 -8 20 -8 36 -2 18 6 22 6 17 -3 -5 -7 -3 -8 5 -3 17 10 81 12 81
2 0 -4 5 -5 11 -1 16 9 169 11 169 1 0 -5 4 -6 9 -2 17 10 71 13 71 3 0 -5 4
-7 9 -3 17 10 71 13 71 3 0 -5 4 -7 9 -3 17 10 71 13 71 3 0 -5 4 -7 9 -3 17
10 71 13 71 3 0 -5 4 -7 9 -3 17 10 71 13 71 3 0 -5 4 -7 9 -3 17 10 71 13 71
3 0 -5 4 -7 9 -3 17 10 71 13 71 3 0 -5 4 -6 10 -3 15 9 81 12 86 4 2 -5 11
-6 18 -3 8 3 17 1 21 -5 3 -6 3 -11 -2 -11 -4 0 -6 -34 -3 -76 3 -42 2 -78 -2
-81 -5 -2 -3 -13 2 -24 6 -10 7 -19 3 -19 -4 0 -6 -34 -3 -76 3 -42 2 -78 -2
-81 -5 -2 -3 -13 2 -24 8 -14 7 -19 -1 -19 -9 0 -9 -3 0 -14 8 -10 9 -16 1
-21 -7 -4 -7 -12 0 -26 6 -10 7 -19 3 -19 -4 0 -6 -34 -3 -76 3 -42 2 -78 -2
-81 -5 -2 -3 -13 2 -24 6 -10 7 -19 3 -19 -4 0 -6 -34 -3 -76 3 -42 2 -78 -2
-81 -5 -2 -3 -13 2 -24 8 -14 7 -19 -1 -19 -9 0 -9 -3 0 -14 8 -10 9 -16 1
-21 -7 -4 -7 -12 0 -26 6 -10 7 -19 3 -19 -4 0 -6 -34 -3 -76 3 -42 2 -78 -2
-81 -5 -2 -3 -13 2 -24 6 -10 7 -19 3 -19 -4 0 -6 -34 -3 -76 3 -42 2 -78 -2
-81 -5 -2 -3 -13 2 -24 8 -14 7 -19 -1 -19 -9 0 -9 -3 0 -14 8 -10 9 -16 1
-21 -7 -4 -7 -12 0 -26 6 -10 7 -19 3 -19 -4 0 -6 -34 -3 -76 3 -42 2 -78 -2
-81 -5 -2 -3 -13 2 -24 6 -10 7 -19 3 -19 -4 0 -6 -34 -3 -76 3 -42 2 -78 -2
-81 -5 -2 -3 -13 2 -24 8 -14 7 -19 -1 -19 -9 0 -9 -3 0 -14 8 -10 9 -16 1
-21 -7 -4 -7 -12 0 -26 8 -14 7 -19 -1 -19 -9 0 -9 -3 0 -14 8 -10 9 -16 1
-21 -7 -4 -7 -12 0 -26 8 -14 7 -19 -1 -19 -9 0 -9 -3 0 -14 8 -10 9 -16 1
-21 -7 -4 -7 -12 0 -26 6 -10 7 -19 3 -19 -4 0 -6 -34 -3 -76 3 -42 2 -78 -2
-81 -5 -2 -3 -13 2 -24 6 -10 7 -19 3 -19 -4 0 -6 -34 -3 -76 3 -42 2 -78 -2
-81 -5 -2 -3 -13 2 -24 8 -14 7 -19 -1 -19 -9 0 -9 -3 0 -14 8 -10 9 -16 1
-21 -7 -4 -7 -12 0 -26 6 -10 7 -19 3 -19 -4 0 -6 -34 -3 -76 3 -42 2 -78 -2
-81 -5 -2 -3 -13 2 -24 6 -10 7 -19 3 -19 -4 0 -6 -34 -3 -76 3 -42 2 -78 -2
-81 -5 -2 -3 -13 2 -24 8 -14 7 -19 -1 -19 -9 0 -9 -3 0 -14 8 -10 9 -16 1
-21 -7 -4 -7 -12 0 -26 6 -10 7 -19 3 -19 -4 0 -6 -34 -3 -76 3 -42 2 -78 -2
-81 -5 -2 -3 -13 2 -24 6 -10 7 -19 3 -19 -4 0 -6 -34 -3 -76 3 -42 2 -78 -2
-81 -5 -2 -3 -13 2 -24 8 -14 7 -19 -1 -19 -9 0 -9 -3 0 -14 8 -10 9 -16 1
-21 -7 -4 -7 -12 0 -26 6 -10 7 -19 3 -19 -4 0 -6 -34 -3 -76 3 -42 2 -78 -2
-81 -5 -2 -3 -13 2 -24 6 -10 7 -19 3 -19 -4 0 -6 -34 -3 -76 3 -42 2 -78 -2
-81 -5 -2 -3 -13 2 -24 8 -14 7 -19 -1 -19 -9 0 -9 -3 0 -14 8 -10 9 -16 1
-21 -7 -4 -7 -12 0 -26 6 -10 7 -19 3 -19 -4 0 -6 -34 -3 -76 3 -42 2 -78 -2
-81 -5 -2 -3 -13 2 -24 6 -10 7 -19 3 -19 -4 0 -6 -34 -3 -76 3 -42 2 -78 -2
-81 -5 -2 -3 -13 2 -24 8 -14 7 -19 -1 -19 -9 0 -9 -3 0 -14 8 -10 9 -16 1
-21 -7 -4 -7 -12 0 -26 6 -10 7 -19 3 -19 -4 0 -6 -34 -3 -76 3 -42 2 -78 -2
-81 -5 -2 -3 -13 2 -24 6 -10 7 -19 3 -19 -4 0 -6 -34 -3 -76 3 -42 2 -78 -2
-81 -5 -2 -3 -13 2 -24 8 -14 7 -19 -1 -19 -9 0 -9 -3 0 -14 8 -10 9 -16 1
-21 -7 -4 -7 -12 0 -26 6 -10 7 -19 3 -19 -4 0 -6 -34 -3 -76 3 -42 2 -78 -2
-81 -5 -2 -3 -13 2 -24 6 -10 7 -19 3 -19 -4 0 -6 -34 -3 -76 3 -42 2 -78 -2
-81 -5 -2 -3 -13 2 -24 8 -14 7 -19 -1 -19 -9 0 -9 -3 0 -14 8 -10 9 -16 1
-21 -7 -4 -7 -12 0 -26 6 -10 7 -19 3 -19 -4 0 -6 -34 -3 -76 3 -42 2 -78 -2
-81 -5 -2 -3 -13 2 -24 6 -10 7 -19 3 -19 -4 0 -6 -61 -3 -136 3 -75 2 -138
-3 -141 -4 -2 -2 -13 3 -24 6 -10 7 -19 3 -19 -4 0 -6 -34 -3 -76 3 -42 2 -78
-2 -81 -5 -2 -3 -13 2 -24 8 -14 7 -19 -1 -19 -9 0 -9 -3 0 -14 8 -10 9 -16 1
-21 -7 -4 -7 -12 0 -26 6 -10 7 -19 3 -19 -4 0 -6 -34 -3 -76 3 -42 2 -78 -2
-81 -5 -2 -3 -13 2 -24 6 -10 7 -19 3 -19 -4 0 -6 -34 -3 -76 3 -42 2 -78 -2
-81 -5 -2 -3 -13 2 -24 8 -14 7 -19 -1 -19 -9 0 -9 -3 0 -14 8 -10 9 -16 1
-21 -7 -4 -7 -12 0 -26 6 -10 7 -19 3 -19 -4 0 -6 -34 -3 -76 3 -42 2 -78 -2
-81 -5 -2 -3 -13 2 -24 6 -10 7 -19 3 -19 -4 0 -6 -43 -3 -96 3 -53 2 -98 -3
-101 -4 -2 -2 -13 3 -24 6 -10 7 -19 2 -19 -4 0 -5 -25 -2 -56 3 -30 3 -57 -2
-60 -4 -3 -3 -14 2 -25 6 -10 7 -19 2 -19 -4 0 -5 -25 -2 -56 3 -30 3 -57 -2
-60 -4 -3 -3 -14 2 -25 6 -10 7 -19 2 -19 -4 0 -5 -25 -2 -56 3 -30 3 -57 -2
-60 -4 -3 -3 -14 2 -25 6 -10 7 -19 2 -19 -4 0 -5 -25 -2 -56 3 -30 3 -57 -2
-60 -4 -3 -3 -14 2 -25 6 -10 7 -19 3 -19 -10 0 -9 -73 1 -89 4 -6 3 -11 -3
-11 -6 0 -8 -7 -5 -15 5 -12 -3 -15 -40 -16 -25 0 -62 -1 -81 -2 -19 0 -37 2
-39 4 -2 2 -52 2 -110 -1 -58 -3 -106 -1 -106 3 0 5 -5 5 -11 1 -16 -9 -109
-11 -109 -1 0 5 -5 5 -10 2 -9 -6 -183 -9 -215 -5 -5 1 -44 1 -85 0 -89 -2
-141 -2 -155 0 -5 0 -62 0 -125 0 -142 -2 -182 -2 -195 0 -5 0 -62 0 -125 0
-142 -2 -182 -2 -195 0 -9 1 -186 -1 -277 -3 -21 0 -40 1 -42 4 -2 2 -43 2
-90 -1 -47 -3 -86 -1 -86 3 0 5 -5 5 -10 2 -12 -7 -208 -10 -215 -4 -2 3 -33
2 -69 -1 -36 -3 -66 -2 -66 3 0 4 -5 5 -10 2 -11 -7 -248 -10 -255 -4 -2 2
-51 2 -109 -1 -58 -3 -106 -1 -106 3 0 5 -5 5 -11 1 -16 -9 -109 -11 -109 -1
0 5 -5 5 -10 2 -9 -6 -183 -9 -215 -5 -5 1 -44 1 -85 0 -88 -2 -141 -2 -155 0
-5 0 -65 1 -132 0 -94 -1 -123 2 -124 12 -1 11 -1 49 1 143 0 6 -1 36 -3 68
-1 31 1 57 6 57 4 0 5 5 1 12 -10 17 -11 168 -1 168 5 0 5 6 0 13 -11 17 -10
61 2 70 7 5 7 10 0 15 -12 8 -13 131 -2 150 5 6 5 12 0 12 -10 0 -9 212 1 228
4 7 4 12 -1 12 -12 0 -10 144 2 152 7 5 7 8 0 8 -12 0 -13 130 -1 148 4 7 4
12 -1 12 -12 0 -10 144 2 152 7 5 7 8 0 8 -12 0 -13 130 -1 148 4 7 4 12 -1
12 -12 0 -10 144 2 152 7 5 7 8 0 8 -12 0 -13 130 -1 148 4 7 4 12 -1 12 -12
0 -10 144 2 152 7 5 7 8 0 8 -12 0 -13 130 -1 148 4 7 4 12 -1 12 -12 0 -10
144 2 152 7 5 7 8 0 8 -12 0 -13 130 -1 148 4 7 4 12 -1 12 -12 0 -10 144 2
152 7 5 7 8 0 8 -12 0 -13 130 -1 148 4 7 4 12 -1 12 -12 0 -10 144 2 152 7 5
7 8 0 8 -12 0 -13 130 -1 148 4 7 4 12 -1 12 -12 0 -10 144 2 152 7 5 7 8 0 8
-6 0 -10 30 -10 70 0 39 4 70 8 70 5 0 5 6 0 13 -10 16 -11 67 -1 67 4 0 4 10
-1 23 -4 12 -6 31 -4 42 2 11 4 25 4 30 -1 6 -2 36 -4 68 -1 31 1 57 6 57 4 0
5 5 1 12 -10 17 -11 168 -1 168 5 0 5 6 0 13 -11 17 -10 61 2 70 7 5 7 10 0
15 -12 8 -13 131 -2 150 5 6 5 12 0 12 -4 0 -8 50 -8 110 0 61 4 110 8 110 5
0 5 6 0 13 -10 16 -11 67 -1 67 4 0 4 10 -1 23 -4 12 -6 31 -4 42 2 11 4 25 4
30 -1 6 -2 36 -4 68 -1 31 1 57 6 57 4 0 5 5 1 12 -10 17 -11 168 -1 168 5 0
5 6 0 13 -11 17 -10 61 2 70 7 5 7 10 0 15 -12 8 -13 131 -2 150 5 6 5 12 0
12 -4 0 -8 50 -8 110 0 61 4 110 8 110 5 0 5 6 0 13 -10 16 -11 67 -1 67 4 0
4 10 -1 23 -4 12 -6 31 -4 42 2 11 4 25 4 30 -1 6 -2 36 -4 68 -1 31 1 57 6
57 4 0 5 5 1 12 -10 17 -11 168 -1 168 5 0 5 6 0 13 -10 17 -11 67 0 67 4 0 5
6 0 13 -10 17 -11 67 0 67 4 0 5 6 0 13 -10 16 -11 67 -1 67 4 0 4 10 -1 23
-4 12 -6 31 -4 42 2 11 4 25 4 30 -1 6 -2 36 -4 68 -1 31 1 57 6 57 4 0 5 5 1
12 -10 17 -11 168 -1 168 5 0 5 6 0 13 -11 17 -10 61 2 70 7 5 7 10 0 15 -12
8 -13 131 -2 150 5 6 5 12 0 12 -4 0 -8 50 -8 110 0 61 4 110 8 110 5 0 5 6 0
13 -10 16 -11 67 -1 67 4 0 4 10 -1 23 -4 12 -6 31 -4 42 2 11 4 25 4 30 -1 6
-2 36 -4 68 -1 31 1 57 6 57 4 0 5 5 1 12 -10 17 -11 168 -1 168 5 0 5 6 0 13
-11 17 -10 61 2 70 7 5 7 10 0 15 -12 8 -13 131 -2 150 5 6 4 12 0 12 -10 0
-9 143 1 159 4 6 2 11 -5 11 -8 0 -8 4 1 15 9 11 17 12 23 6 7 -7 17 -6 31 1z"/>
<path d="M3257 8108 c-7 -4 -11 -202 -11 -650 -1 -353 0 -648 2 -655 3 -9 77
-12 302 -12 l298 1 0 349 c-1 192 2 353 6 356 11 11 477 10 484 -1 8 -14 8
-1066 0 -1079 -4 -7 -27 -13 -50 -14 -24 0 -43 -2 -43 -3 0 -1 -12 -3 -27 -4
-16 -1 -28 2 -28 7 0 4 -6 5 -12 0 -14 -8 -29 -9 -200 -15 -65 -1 -118 -5
-118 -8 0 -3 -30 -6 -68 -6 -87 -2 -297 -12 -297 -14 0 -1 -37 -3 -82 -5 -45
-2 -86 -6 -91 -9 -9 -5 -7 -89 3 -105 3 -6 3 -11 -2 -11 -10 0 -9 -213 1 -229
4 -6 4 -11 -1 -11 -4 0 -8 -20 -8 -45 0 -25 3 -45 8 -45 4 0 4 -8 -1 -17 -10
-21 -8 -345 2 -362 4 -6 4 -11 -1 -11 -4 0 -8 -20 -8 -45 0 -25 3 -45 8 -45 4
0 4 -8 -1 -17 -10 -21 -8 -345 2 -362 4 -6 3 -11 -1 -11 -10 0 -10 -66 -1 -76
4 -3 3 -16 -1 -28 -6 -18 -7 -48 -2 -116 1 -14 36 -16 281 -16 154 0 281 2
281 5 1 3 3 229 4 501 1 272 3 500 4 505 0 6 29 11 64 12 34 1 114 5 177 9 63
4 136 7 162 8 27 1 48 5 48 10 0 5 6 3 13 -3 8 -6 16 -8 19 -6 3 3 39 8 79 10
41 2 128 7 194 10 66 4 141 8 167 9 26 1 51 6 55 10 4 4 7 507 8 1118 0 980
-2 1112 -15 1115 -27 7 -1592 8 -1603 1z"/>
<path d="M5338 8108 c0 -2 -2 -507 -3 -1123 l-1 -1121 265 0 266 0 0 1123 0
1123 -262 0 c-145 0 -264 -1 -265 -2z"/>
<path d="M4362 5470 c-18 -5 -18 -27 -18 -607 l0 -601 33 -4 c18 -2 39 -1 45
3 7 4 16 5 21 2 12 -7 419 -5 426 3 3 2 5 139 6 302 l0 297 263 0 c144 0 262
-2 263 -5 1 -3 2 -249 3 -546 1 -350 -3 -545 -9 -550 -14 -12 -58 -11 -67 1
-5 7 -8 7 -8 0 0 -6 -19 -11 -42 -12 -60 -2 -273 -12 -273 -13 0 0 -43 -3 -95
-5 -52 -3 -135 -7 -185 -10 -49 -2 -144 -7 -210 -11 -66 -3 -131 -6 -145 -7
l-25 -2 -1 -737 c0 -514 3 -738 10 -740 10 -3 516 -2 571 1 20 1 20 7 20 467
0 256 2 467 5 469 4 2 58 7 121 10 63 3 159 8 214 11 55 3 119 6 143 7 23 0
42 5 42 9 0 5 5 6 12 2 16 -10 56 -11 71 -2 6 4 17 2 24 -4 7 -6 13 -6 13 -2
0 5 24 10 53 11 48 1 286 13 315 15 9 1 12 233 12 1125 0 618 -3 1123 -7 1124
-45 3 -1587 3 -1601 -1z"/>
<path d="M3463 4332 c-72 -3 -73 -3 -74 -30 0 -35 0 -2065 0 -2072 1 -8 480
-4 488 4 5 4 8 478 8 1052 l0 1044 -35 0 c-19 1 -98 2 -175 3 -77 1 -173 1
-212 -1z"/>
<path d="M5411 2755 c-4 -5 -7 -219 -7 -475 l1 -465 -330 -2 c-181 -2 -330 -3
-330 -3 0 -1 -176 -2 -391 -4 -214 -1 -396 -6 -402 -10 -7 -4 -12 -3 -12 1 0
9 -77 10 -86 0 -3 -3 -17 -2 -30 3 -16 6 -24 6 -24 -1 0 -6 -7 -6 -20 1 -15 8
-20 8 -20 -2 0 -9 -3 -9 -12 0 -7 7 -17 8 -29 2 -12 -7 -20 -6 -24 0 -4 6 -12
7 -18 3 -15 -9 -47 -11 -47 -3 0 4 -10 6 -22 4 -13 -1 -23 -3 -23 -4 0 -1 -21
-2 -48 -3 -26 -1 -47 3 -47 8 0 7 -3 7 -8 0 -4 -6 -36 -10 -72 -10 l-65 0 -1
-56 c0 -31 -3 -63 -7 -72 -4 -10 -3 -17 1 -17 4 0 7 -89 7 -198 0 -108 1 -203
3 -210 4 -10 109 -12 528 -10 288 2 524 7 524 11 0 5 5 5 12 1 15 -9 143 -9
157 1 6 3 11 1 11 -5 0 -6 4 -9 8 -6 18 11 62 14 62 5 0 -6 5 -7 11 -3 6 3
257 8 557 11 301 2 586 5 635 6 48 1 87 -2 87 -6 0 -5 7 -2 15 7 13 13 15 111
15 760 0 410 -3 746 -7 747 -65 7 -547 2 -552 -6z"/>
</g>
</svg>
